<svg width="526" height="73" viewBox="0 0 526 73" fill="none" xmlns="http://www.w3.org/2000/svg">
<path d="M21.024 72V19.872H0.384V4.8H60.576V19.872H40.032V72H21.024ZM65.7623 72V19.968H83.1383V35.136L80.5463 30.816C82.0823 26.912 84.5783 24 88.0343 22.08C91.4903 20.096 95.6823 19.104 100.61 19.104V35.52C99.7783 35.392 99.0423 35.328 98.4023 35.328C97.8263 35.264 97.1863 35.232 96.4823 35.232C92.7703 35.232 89.7623 36.256 87.4583 38.304C85.1543 40.288 84.0023 43.552 84.0023 48.096V72H65.7623ZM136.82 72V62.304L135.572 59.904V42.048C135.572 39.168 134.676 36.96 132.884 35.424C131.156 33.824 128.372 33.024 124.531 33.024C122.036 33.024 119.508 33.44 116.948 34.272C114.388 35.04 112.212 36.128 110.42 37.536L104.276 25.152C107.22 23.232 110.74 21.76 114.836 20.736C118.996 19.648 123.124 19.104 127.22 19.104C135.668 19.104 142.196 21.056 146.804 24.96C151.476 28.8 153.812 34.848 153.812 43.104V72H136.82ZM121.46 72.864C117.3 72.864 113.78 72.16 110.9 70.752C108.02 69.344 105.812 67.424 104.276 64.992C102.804 62.56 102.068 59.84 102.068 56.832C102.068 53.632 102.868 50.88 104.468 48.576C106.132 46.208 108.66 44.416 112.052 43.2C115.444 41.92 119.828 41.28 125.204 41.28H137.492V50.784H127.7C124.756 50.784 122.676 51.264 121.46 52.224C120.308 53.184 119.732 54.464 119.732 56.064C119.732 57.664 120.34 58.944 121.556 59.904C122.772 60.864 124.436 61.344 126.548 61.344C128.532 61.344 130.324 60.864 131.924 59.904C133.588 58.88 134.804 57.344 135.572 55.296L138.068 62.016C137.108 65.6 135.22 68.32 132.404 70.176C129.652 71.968 126.004 72.864 121.46 72.864ZM192.573 72.864C186.813 72.864 181.661 71.712 177.117 69.408C172.637 67.104 169.117 63.936 166.557 59.904C163.997 55.808 162.717 51.136 162.717 45.888C162.717 40.64 163.997 36 166.557 31.968C169.117 27.936 172.637 24.8 177.117 22.56C181.661 20.256 186.813 19.104 192.573 19.104C198.461 19.104 203.549 20.352 207.837 22.848C212.125 25.344 215.165 28.864 216.957 33.408L202.845 40.608C201.629 38.176 200.125 36.416 198.333 35.328C196.541 34.176 194.589 33.6 192.477 33.6C190.365 33.6 188.445 34.08 186.717 35.04C184.989 36 183.613 37.408 182.589 39.264C181.629 41.056 181.149 43.264 181.149 45.888C181.149 48.576 181.629 50.848 182.589 52.704C183.613 54.56 184.989 55.968 186.717 56.928C188.445 57.888 190.365 58.368 192.477 58.368C194.589 58.368 196.541 57.824 198.333 56.736C200.125 55.584 201.629 53.792 202.845 51.36L216.957 58.56C215.165 63.104 212.125 66.624 207.837 69.12C203.549 71.616 198.461 72.864 192.573 72.864ZM250.526 72.864C244.382 72.864 239.006 71.712 234.398 69.408C229.854 67.04 226.302 63.84 223.742 59.808C221.246 55.712 219.998 51.072 219.998 45.888C219.998 40.704 221.214 36.096 223.646 32.064C226.142 27.968 229.566 24.8 233.918 22.56C238.27 20.256 243.166 19.104 248.606 19.104C253.726 19.104 258.398 20.16 262.622 22.272C266.846 24.32 270.206 27.36 272.702 31.392C275.198 35.424 276.446 40.32 276.446 46.08C276.446 46.72 276.414 47.456 276.35 48.288C276.286 49.12 276.222 49.888 276.158 50.592H234.974V40.992H266.462L259.55 43.68C259.614 41.312 259.166 39.264 258.206 37.536C257.31 35.808 256.03 34.464 254.366 33.504C252.766 32.544 250.878 32.064 248.702 32.064C246.526 32.064 244.606 32.544 242.942 33.504C241.342 34.464 240.094 35.84 239.198 37.632C238.302 39.36 237.854 41.408 237.854 43.776V46.56C237.854 49.12 238.366 51.328 239.39 53.184C240.478 55.04 242.014 56.48 243.998 57.504C245.982 58.464 248.35 58.944 251.102 58.944C253.662 58.944 255.838 58.592 257.63 57.888C259.486 57.12 261.31 55.968 263.102 54.432L272.702 64.416C270.206 67.168 267.134 69.28 263.486 70.752C259.838 72.16 255.518 72.864 250.526 72.864ZM303.384 34.272H334.392V48.96H303.384V34.272ZM304.728 72H285.72V4.8H338.424V19.488H304.728V72ZM346.45 72V0.767996H364.69V72H346.45ZM402.656 72.864C396.96 72.864 391.904 71.712 387.488 69.408C383.072 67.104 379.584 63.936 377.023 59.904C374.528 55.808 373.28 51.136 373.28 45.888C373.28 40.64 374.528 36 377.023 31.968C379.584 27.936 383.072 24.8 387.488 22.56C391.904 20.256 396.96 19.104 402.656 19.104C408.352 19.104 413.408 20.256 417.824 22.56C422.304 24.8 425.792 27.936 428.288 31.968C430.784 36 432.032 40.64 432.032 45.888C432.032 51.136 430.784 55.808 428.288 59.904C425.792 63.936 422.304 67.104 417.824 69.408C413.408 71.712 408.352 72.864 402.656 72.864ZM402.656 58.368C404.768 58.368 406.624 57.888 408.224 56.928C409.888 55.968 411.2 54.56 412.16 52.704C413.12 50.784 413.6 48.512 413.6 45.888C413.6 43.264 413.12 41.056 412.16 39.264C411.2 37.408 409.888 36 408.224 35.04C406.624 34.08 404.768 33.6 402.656 33.6C400.608 33.6 398.752 34.08 397.088 35.04C395.488 36 394.176 37.408 393.152 39.264C392.192 41.056 391.712 43.264 391.712 45.888C391.712 48.512 392.192 50.784 393.152 52.704C394.176 54.56 395.488 55.968 397.088 56.928C398.752 57.888 400.608 58.368 402.656 58.368ZM451.459 72L432.931 19.968H450.211L464.899 63.456H456.643L471.907 19.968H487.459L502.147 63.456H494.083L509.251 19.968H525.283L506.755 72H489.091L476.611 36H481.987L469.123 72H451.459Z" fill="white"/>
</svg>
